<svg width="93" height="48" viewBox="0 0 93 48" fill="none" xmlns="http://www.w3.org/2000/svg">
<path d="M25.6585 26.5204L25.6591 13.6034C25.6591 7.19499 20.4642 2.00006 14.0556 2C7.99531 2 2.91819 6.73402 2.86327 12.7941C2.86075 13.0757 2.85938 13.3507 2.85938 13.617" stroke="#EB8F44" stroke-width="2.70291"/>
<path d="M7.68133 20.1975C8.50677 20.2019 9.17958 19.5366 9.1841 18.7115C9.18863 17.8863 8.52314 17.2138 7.69771 17.2093C6.87227 17.2048 6.19946 17.8701 6.19494 18.6953C6.19042 19.5204 6.8559 20.193 7.68133 20.1975Z" fill="#E3E5DE"/>
<path d="M2.14166 26.7764L2.08236 34.8047C2.03468 41.2662 7.2126 46.5533 13.6736 46.6401C20.0884 46.727 25.3875 41.6531 25.5797 35.2407L25.6175 33.9771" stroke="#E3E5DE" stroke-width="2.70291"/>
<path d="M20.3685 23.1119L20.3523 34.4512C20.3475 38.0023 17.4419 40.8651 13.8911 40.8172C10.3858 40.7699 7.57674 37.9012 7.60321 34.3957L7.6697 25.5919C7.68695 23.3059 5.07004 21.9979 3.25163 23.3836C2.56874 23.904 2.16791 24.7133 2.16797 25.5719V26.9903" stroke="#E3E5DE" stroke-width="2.70291"/>
<path d="M14.0213 7.79402L13.999 6.44274L14.0211 6.44238L14.0433 6.44274L14.0213 7.79402ZM9.11307 18.3804C9.11307 19.1268 8.50799 19.7319 7.76162 19.7319C7.01524 19.7319 6.41016 19.1268 6.41016 18.3804H9.11307ZM14.0436 9.14524L13.6684 9.15147L13.6238 6.44891L13.999 6.44274L14.0436 9.14524ZM9.11307 13.7825V18.3804H6.41016V13.7825H9.11307ZM19.0235 23.3358V15.9658H21.7266V23.3358H19.0235ZM19.0235 15.9658V14.252H21.7266V15.9658H19.0235ZM6.41016 13.7825C6.41016 9.77889 9.6207 6.51492 13.6238 6.44891L13.6684 9.15147C11.1405 9.19316 9.11307 11.2543 9.11307 13.7825H6.41016ZM14.0433 6.44274C18.3065 6.51198 21.7266 9.98793 21.7266 14.252H19.0235C19.0235 11.4636 16.7875 9.19058 13.9994 9.1453L14.0433 6.44274Z" fill="#E3E5DE"/>
<path d="M25.6382 35.6258C26.6467 35.6313 27.4687 34.8204 27.4742 33.8146C27.4797 32.8088 26.6666 31.989 25.6581 31.9836C24.6496 31.9781 23.8276 32.789 23.8221 33.7948C23.8165 34.8006 24.6296 35.6204 25.6382 35.6258Z" fill="#E3E5DE"/>
<path d="M25.7785 28.5182C26.7737 28.5182 27.5804 27.6106 27.5804 26.491C27.5804 25.3715 26.7737 24.4639 25.7785 24.4639C24.7833 24.4639 23.9766 25.3715 23.9766 26.491C23.9766 27.6106 24.7833 28.5182 25.7785 28.5182Z" fill="#EB8F44"/>
<path d="M2.80194 15.0033C3.79712 15.0033 4.60388 14.1965 4.60388 13.2014C4.60388 12.2062 3.79712 11.3994 2.80194 11.3994C1.80676 11.3994 1 12.2062 1 13.2014C1 14.1965 1.80676 15.0033 2.80194 15.0033Z" fill="#EB8F44"/>
<path d="M34.2205 34.396C34.3061 32.7985 34.726 31.3702 35.4801 30.1112C36.2606 28.8523 37.2579 27.8653 38.4732 27.15C39.7142 26.4349 41.0823 26.0814 42.5773 26.0893C43.7627 26.0956 44.6767 26.268 45.3194 26.6065C45.9621 26.945 46.2041 27.436 46.046 28.0795C45.9411 28.4656 45.7591 28.7224 45.5009 28.8499C45.2679 28.9776 44.9714 29.0275 44.6108 28.9998C44.276 28.9722 43.8891 28.9444 43.4512 28.9163C42.0083 28.7798 40.7193 28.9276 39.5825 29.3597C38.472 29.7662 37.5795 30.4059 36.9045 31.2786C36.2558 32.1515 35.9281 33.1937 35.9216 34.4051L34.2205 34.396ZM34.3834 47.4261C33.9192 47.4237 33.5592 47.2931 33.3029 47.0338C33.0465 46.775 32.9195 46.4132 32.9219 45.949L33.0183 27.7397C33.0213 27.2757 33.1519 26.9155 33.4107 26.6592C33.67 26.4028 34.0318 26.2758 34.4954 26.2783C34.9596 26.2808 35.3196 26.4116 35.5759 26.6707C35.8323 26.9298 35.9593 27.2913 35.9569 27.7553L35.8599 45.9646C35.8575 46.4288 35.7269 46.7888 35.4675 47.0452C35.2088 47.3015 34.847 47.4285 34.3834 47.4261ZM59.0101 47.7501C56.9993 47.74 55.1851 47.2662 53.566 46.3294C51.9728 45.3932 50.7036 44.1234 49.7584 42.5205C48.8396 40.8919 48.3724 39.0723 48.3574 37.0616L48.4538 18.8133C48.4568 18.3494 48.5874 17.9892 48.8467 17.7328C49.1313 17.4508 49.5062 17.3111 49.9698 17.3135C50.4083 17.3158 50.7551 17.4594 51.0114 17.7443C51.2935 18.0036 51.4337 18.3652 51.4313 18.8291L51.3708 30.1956C52.2273 28.9888 53.354 28.0282 54.7496 27.3139C56.171 26.574 57.7457 26.2086 59.4725 26.2177C61.4569 26.2283 63.2328 26.7146 64.7997 27.6766C66.3672 28.6129 67.5975 29.8952 68.4912 31.5238C69.4106 33.1526 69.8646 34.985 69.8538 37.0211C69.8431 39.083 69.3561 40.9237 68.3942 42.5421C67.4574 44.1611 66.175 45.4429 64.5458 46.3881C62.9172 47.3075 61.0717 47.7615 59.0101 47.7501ZM59.0245 45.044C60.5189 45.0518 61.8612 44.711 63.0507 44.0216C64.2403 43.3064 65.1729 42.3444 65.8497 41.1369C66.5517 39.9294 66.9075 38.5518 66.9153 37.0056C66.9237 35.4848 66.5829 34.117 65.8935 32.9019C65.2298 31.6611 64.3074 30.6897 63.125 29.9875C61.9432 29.2853 60.6045 28.9302 59.1101 28.9222C57.6408 28.9144 56.3117 29.2553 55.1222 29.9449C53.9326 30.6346 53 31.5961 52.3232 32.8297C51.6463 34.0376 51.3043 35.4018 51.2959 36.9226C51.2882 38.4691 51.6158 39.8497 52.2795 41.0644C52.9431 42.2797 53.8661 43.2513 55.0479 43.979C56.2297 44.681 57.5552 45.0362 59.0245 45.044ZM75.4434 47.6447C74.9792 47.6417 74.6061 47.5112 74.324 47.2518C74.0676 46.9667 73.9412 46.5923 73.9436 46.1287L74.0401 27.9963C74.0425 27.5324 74.173 27.1723 74.4324 26.9158C74.7175 26.6338 75.0919 26.4941 75.5555 26.4966C75.9939 26.4989 76.3413 26.6425 76.5971 26.9274C76.8792 27.1866 77.0193 27.5482 77.0169 28.0121L76.9205 46.1443C76.9181 46.6085 76.7744 46.9817 76.4892 47.2632C76.2299 47.5195 75.8813 47.6465 75.4434 47.6447ZM75.5381 22.4756C74.9715 22.4726 74.4827 22.2638 74.0724 21.8492C73.6621 21.4345 73.459 20.9309 73.462 20.3381C73.4656 19.6937 73.6741 19.1922 74.0886 18.8336C74.5288 18.4493 75.0326 18.2586 75.5992 18.2616C76.1406 18.2645 76.6162 18.4604 77.0265 18.8491C77.4632 19.2124 77.6794 19.7161 77.6758 20.3605C77.6728 20.9533 77.4638 21.4548 77.0493 21.865C76.6348 22.2752 76.1311 22.4787 75.5381 22.4756ZM90.4465 47.7244C89.0802 47.7172 87.8577 47.3884 86.7784 46.7379C85.7254 46.088 84.8922 45.2075 84.2795 44.0958C83.6673 42.9584 83.3648 41.6682 83.372 40.2247L83.4726 21.3192C83.475 20.881 83.6056 20.5209 83.865 20.2387C84.1501 19.9567 84.5119 19.8168 84.9497 19.8192C85.3882 19.8215 85.7481 19.9652 86.0303 20.2502C86.3124 20.5353 86.4519 20.8968 86.4495 21.335L86.3495 40.2402C86.3423 41.555 86.7233 42.6397 87.4917 43.4945C88.2608 44.3234 89.2509 44.7409 90.462 44.7475L91.506 44.7529C91.9187 44.7547 92.253 44.8984 92.5087 45.1836C92.7651 45.4681 92.8921 45.8298 92.8897 46.2677C92.8873 46.7061 92.7309 47.0661 92.4201 47.3482C92.1098 47.604 91.7223 47.731 91.2581 47.7286L90.4465 47.7244ZM80.9144 29.8887C80.5275 29.8866 80.2059 29.7689 79.9495 29.5356C79.6931 29.2765 79.5662 28.9665 79.568 28.6057C79.5698 28.219 79.7003 27.9104 79.9591 27.6798C80.2184 27.4235 80.5413 27.2963 80.9282 27.2983L90.7867 27.3508C91.173 27.3528 91.4947 27.4834 91.751 27.7425C92.0074 27.9758 92.135 28.2858 92.1326 28.6724C92.1308 29.0333 92.0002 29.3419 91.7414 29.5983C91.4821 29.8289 91.1592 29.9432 90.7729 29.9411L80.9144 29.8887Z" fill="#E3E5DE"/>
<path d="M75.8724 22.8416C77.1957 22.8416 78.2683 21.7689 78.2683 20.4457C78.2683 19.1225 77.1957 18.0498 75.8724 18.0498C74.5492 18.0498 73.4766 19.1225 73.4766 20.4457C73.4766 21.7689 74.5492 22.8416 75.8724 22.8416Z" fill="#EB8F44"/>
</svg>
