<svg width="93" height="48" viewBox="0 0 93 48" fill="none" xmlns="http://www.w3.org/2000/svg">
<path d="M25.6585 26.2764L25.6591 13.4411C25.6591 7.07325 20.4642 1.91119 14.0556 1.91113C7.99531 1.91113 2.91819 6.6152 2.86327 12.6369C2.86075 12.9168 2.85938 13.19 2.85938 13.4546" stroke="#EB8F44" stroke-width="2.70291"/>
<path d="M7.68133 19.9929C8.50677 19.9974 9.17958 19.3363 9.1841 18.5164C9.18863 17.6964 8.52314 17.0281 7.69771 17.0237C6.87227 17.0192 6.19946 17.6803 6.19494 18.5002C6.19042 19.3202 6.8559 19.9885 7.68133 19.9929Z" fill="#25291C"/>
<path d="M2.14166 26.5312L2.08236 34.5087C2.03468 40.9294 7.2126 46.183 13.6736 46.2693C20.0884 46.3556 25.3875 41.3138 25.5797 34.942L25.6175 33.6864" stroke="#25291C" stroke-width="2.70291"/>
<path d="M20.3685 22.8903L20.3523 34.1578C20.3475 37.6864 17.4419 40.5312 13.8911 40.4836C10.3858 40.4365 7.57674 37.586 7.60321 34.1027L7.6697 25.3546C7.68695 23.0831 5.07004 21.7833 3.25163 23.1603C2.56874 23.6773 2.16791 24.4816 2.16797 25.3347V26.7442" stroke="#25291C" stroke-width="2.70291"/>
<path d="M14.0213 7.66828L13.999 6.32555L14.0211 6.3252L14.0433 6.32555L14.0213 7.66828ZM9.11307 18.1877C9.11307 18.9293 8.50799 19.5306 7.76162 19.5306C7.01524 19.5306 6.41016 18.9293 6.41016 18.1877H9.11307ZM14.0436 9.01094L13.6684 9.01714L13.6238 6.33168L13.999 6.32555L14.0436 9.01094ZM9.11307 13.6189V18.1877H6.41016V13.6189H9.11307ZM19.0235 23.1116V15.7883H21.7266V23.1116H19.0235ZM19.0235 15.7883V14.0854H21.7266V15.7883H19.0235ZM6.41016 13.6189C6.41016 9.64058 9.6207 6.39727 13.6238 6.33168L13.6684 9.01714C11.1405 9.05856 9.11307 11.1066 9.11307 13.6189H6.41016ZM14.0433 6.32555C18.3065 6.39436 21.7266 9.8483 21.7266 14.0854H19.0235C19.0235 11.3146 16.7875 9.056 13.9994 9.01101L14.0433 6.32555Z" fill="#25291C"/>
<path d="M25.6382 35.3244C26.6467 35.3299 27.4687 34.5241 27.4742 33.5246C27.4797 32.5252 26.6666 31.7106 25.6581 31.7052C24.6496 31.6997 23.8276 32.5055 23.8221 33.5049C23.8165 34.5044 24.6296 35.319 25.6382 35.3244Z" fill="#25291C"/>
<path d="M25.7785 28.2621C26.7737 28.2621 27.5804 27.3602 27.5804 26.2477C27.5804 25.1353 26.7737 24.2334 25.7785 24.2334C24.7833 24.2334 23.9766 25.1353 23.9766 26.2477C23.9766 27.3602 24.7833 28.2621 25.7785 28.2621Z" fill="#EB8F44"/>
<path d="M2.80194 14.832C3.79712 14.832 4.60388 14.0304 4.60388 13.0415C4.60388 12.0526 3.79712 11.251 2.80194 11.251C1.80676 11.251 1 12.0526 1 13.0415C1 14.0304 1.80676 14.832 2.80194 14.832Z" fill="#EB8F44"/>
<path d="M34.2205 34.1024C34.3061 32.5149 34.726 31.0956 35.4801 29.8446C36.2606 28.5937 37.2579 27.6129 38.4732 26.9022C39.7142 26.1917 41.0823 25.8403 42.5773 25.8482C43.7627 25.8545 44.6767 26.0258 45.3194 26.3621C45.9621 26.6985 46.2041 27.1864 46.046 27.8258C45.9411 28.2095 45.7591 28.4646 45.5009 28.5914C45.2679 28.7182 44.9714 28.7678 44.6108 28.7403C44.276 28.7129 43.8891 28.6853 43.4512 28.6574C42.0083 28.5217 40.7193 28.6686 39.5825 29.0979C38.472 29.5019 37.5795 30.1375 36.9045 31.0047C36.2558 31.8721 35.9281 32.9076 35.9216 34.1114L34.2205 34.1024ZM34.3834 47.05C33.9192 47.0476 33.5592 46.9178 33.3029 46.6601C33.0465 46.403 32.9195 46.0435 32.9219 45.5823L33.0183 27.4881C33.0213 27.0271 33.1519 26.6692 33.4107 26.4145C33.67 26.1598 34.0318 26.0336 34.4954 26.036C34.9596 26.0385 35.3196 26.1684 35.5759 26.4259C35.8323 26.6834 35.9593 27.0426 35.9569 27.5037L35.8599 45.5977C35.8575 46.059 35.7269 46.4167 35.4675 46.6714C35.2088 46.9262 34.847 47.0523 34.3834 47.05ZM59.0101 47.372C56.9993 47.3618 55.1851 46.8911 53.566 45.9602C51.9728 45.0299 50.7036 43.7682 49.7584 42.1754C48.8396 40.5572 48.3724 38.749 48.3574 36.751L48.4538 18.6182C48.4568 18.1573 48.5874 17.7994 48.8467 17.5446C49.1313 17.2644 49.5062 17.1255 49.9698 17.128C50.4083 17.1303 50.7551 17.2729 51.0114 17.5561C51.2935 17.8137 51.4337 18.173 51.4313 18.634L51.3708 29.9285C52.2273 28.7293 53.354 27.7748 54.7496 27.065C56.171 26.3298 57.7457 25.9667 59.4725 25.9758C61.4569 25.9863 63.2328 26.4695 64.7997 27.4255C66.3672 28.3558 67.5975 29.6301 68.4912 31.2484C69.4106 32.8668 69.8646 34.6876 69.8538 36.7109C69.8431 38.7597 69.3561 40.5887 68.3942 42.1969C67.4574 43.8056 66.175 45.0793 64.5458 46.0185C62.9172 46.9321 61.0717 47.3833 59.0101 47.372ZM59.0245 44.6829C60.5189 44.6907 61.8612 44.352 63.0507 43.667C64.2403 42.9563 65.1729 42.0005 65.8497 40.8006C66.5517 39.6007 66.9075 38.2318 66.9153 36.6954C66.9237 35.1843 66.5829 33.8251 65.8935 32.6177C65.2298 31.3848 64.3074 30.4195 63.125 29.7217C61.9432 29.0239 60.6045 28.6711 59.1101 28.6632C57.6408 28.6555 56.3117 28.9942 55.1222 29.6794C53.9326 30.3647 53 31.3202 52.3232 32.546C51.6463 33.7462 51.3043 35.1018 51.2959 36.6129C51.2882 38.1497 51.6158 39.5215 52.2795 40.7286C52.9431 41.9362 53.8661 42.9016 55.0479 43.6247C56.2297 44.3223 57.5552 44.6752 59.0245 44.6829ZM75.4434 47.2672C74.9792 47.2642 74.6061 47.1345 74.324 46.8768C74.0676 46.5935 73.9412 46.2215 73.9436 45.7608L74.0401 27.7432C74.0425 27.2822 74.173 26.9243 74.4324 26.6695C74.7175 26.3893 75.0919 26.2505 75.5555 26.2529C75.9939 26.2552 76.3413 26.3979 76.5971 26.681C76.8792 26.9386 77.0193 27.2979 77.0169 27.7589L76.9205 45.7763C76.9181 46.2375 76.7744 46.6083 76.4892 46.8881C76.2299 47.1428 75.8813 47.269 75.4434 47.2672ZM75.5381 22.2573C74.9715 22.2544 74.4827 22.0469 74.0724 21.6349C73.6621 21.2229 73.459 20.7224 73.462 20.1334C73.4656 19.4931 73.6741 18.9947 74.0886 18.6384C74.5288 18.2565 75.0326 18.0671 75.5992 18.0701C76.1406 18.0729 76.6162 18.2676 77.0265 18.6539C77.4632 19.0148 77.6794 19.5153 77.6758 20.1556C77.6728 20.7447 77.4638 21.243 77.0493 21.6506C76.6348 22.0583 76.1311 22.2604 75.5381 22.2573ZM90.4465 47.3464C89.0802 47.3392 87.8577 47.0125 86.7784 46.3661C85.7254 45.7203 84.8922 44.8454 84.2795 43.7408C83.6673 42.6105 83.3648 41.3285 83.372 39.8941L83.4726 21.1083C83.475 20.6729 83.6056 20.315 83.865 20.0346C84.1501 19.7544 84.5119 19.6155 84.9497 19.6178C85.3882 19.6201 85.7481 19.7629 86.0303 20.0461C86.3124 20.3293 86.4519 20.6886 86.4495 21.124L86.3495 39.9096C86.3423 41.216 86.7233 42.2939 87.4917 43.1432C88.2608 43.9669 89.2509 44.3818 90.462 44.3883L91.506 44.3937C91.9187 44.3955 92.253 44.5383 92.5087 44.8216C92.7651 45.1043 92.8921 45.4638 92.8897 45.8989C92.8873 46.3346 92.7309 46.6923 92.4201 46.9726C92.1098 47.2267 91.7223 47.3529 91.2581 47.3505L90.4465 47.3464ZM80.9144 29.6236C80.5275 29.6215 80.2059 29.5045 79.9495 29.2727C79.6931 29.0152 79.5662 28.7072 79.568 28.3486C79.5698 27.9645 79.7003 27.6578 79.9591 27.4287C80.2184 27.1739 80.5413 27.0476 80.9282 27.0496L90.7867 27.1017C91.173 27.1037 91.4947 27.2335 91.751 27.4909C92.0074 27.7228 92.135 28.0308 92.1326 28.415C92.1308 28.7735 92.0002 29.0802 91.7414 29.335C91.4821 29.5641 91.1592 29.6777 90.7729 29.6756L80.9144 29.6236Z" fill="#25291C"/>
<path d="M75.8724 22.6208C77.1957 22.6208 78.2683 21.5549 78.2683 20.2401C78.2683 18.9253 77.1957 17.8594 75.8724 17.8594C74.5492 17.8594 73.4766 18.9253 73.4766 20.2401C73.4766 21.5549 74.5492 22.6208 75.8724 22.6208Z" fill="#EB8F44"/>
</svg>
